# xmcd
#
# Track frame offsets: 
#        150
#        18366
#        34316
#        53656
#        64279
#        81369
#        96797
#        110828
#        125920
#        148696
#        164065
#        178364
#
# Disc length: 2587 seconds
#
# Revision: 0
# Processed by: cddbd v1.5.2PL0 Copyright (c) Steve Scherf et al.
# Submitted via: ExactAudioCopy v0.99pb5
#
DISCID=b90a190c
DTITLE=Various Artist - Beginner's Guide to Brass CD3
DYEAR=2011
DGENRE=Ethnic
TTITLE0=Lou Dalfin - Occitania E Basta
TTITLE1=LaBrassBanda - BrassBanda
TTITLE2=Shantel - Usti, Usti Baba
TTITLE3=Fanfare Ciocarlia - Mr. Lobaloba
TTITLE4=Magnifico - Ubicu Te
TTITLE5=Municipale Balcanica - Orso Bellerino
TTITLE6=Balkan Beat Box - War Again
TTITLE7=Nortec Collective pres. Bostich and Fussible - Mama Loves Nortec
TTITLE8=Forty Thieves Orkestar - Last Band Standing
TTITLE9=Watcha Clan - Im Nin'Alu
TTITLE10=Solomon and Socalled - Freylekhs Fun Der Khupe (Pelt Me With Ri
TTITLE10=ce)
TTITLE11=Hot 8 Brass Band - It's Real (Pavlov and Mishkin Remix)
EXTD=
EXTT0=
EXTT1=
EXTT2=
EXTT3=
EXTT4=
EXTT5=
EXTT6=
EXTT7=
EXTT8=
EXTT9=
EXTT10=
EXTT11=
PLAYORDER=
